<?xml version="1.0" encoding="utf-8"?>
<?xml-stylesheet type="text/xsl" href="rss1.xsl"?>
<rss version="2.0" xmlns:atom="http://www.w3.org/2005/Atom" xmlns:content="http://purl.org/rss/1.0/modules/content/" xmlns:dc="http://purl.org/dc/elements/1.1/" xmlns:media="http://search.yahoo.com/mrss/">
<channel>
 <title>Getty</title>
 <link>http://www.gettyimg.com/</link>
 <atom:link href="http://www.gettyimg.com/" rel="self" type="application/rss+xml" />

 
                <item>
                <title><![CDATA[【HD Live Performances】WEB-DL - Navio da Xuxa - 27-03-2023 - 1080p GLBO (GLOBOPLAY) WEB-DL AAC2.0 (Brazilian Portuguese) x264-DASH]]></title>
                <link><![CDATA[https://sharemania.us/threads/navio-da-xuxa-27-03-2023-1080p-glbo-globoplay-web-dl-aac2-0-brazilian-portuguese-x264-dash.240785/]]></link>
                <description><![CDATA[<article>
<blockquote class="messageText SelectQuoteContainer ugc baseHtml">
<span style="font-size: 22px"><b>Navio.da.Xuxa.2023.1080p.GLBO.WEB-DL.AAC2.0.x264-DASH.mkv (Brazilian Portuguese)</b></span><br>
<span style="font-size: 18px"><br>
Title: </span><b><span style="font-size: 18px">Navio da Xuxa</span></b><br>
<span style="font-size: 18px"><br>
Release:<b> 2023</b><br>
<br>
Language: <b><b>Portuguese (Brazil)</b></b><br>
<br>
Source:</span><b><b> <span style="font-size: 18px">GLOBOPLAY (BRAZIL)</span></b></b><br>
<br>
<div class="ToggleTriggerAnchor bbCodeSpoilerContainer">
<button type="button" class="button bbCodeSpoilerButton ToggleTrigger Tooltip JsOnly" data-target="> .SpoilerTarget"><span>Spoiler: <span class="SpoilerTitle">MediaInfo</span></span></button>
<div class="SpoilerTarget bbCodeSpoilerText">General<br>
Unique ID : 327193330139830024467995255375875137108 (0xF62724A98AC99C9FFA6FFB377441DE54)<br>
Complete name : Navio.da.Xuxa.2023.1080p.GLBO.WEB-DL.AAC2.0.x264-DASH\Navio.da.Xuxa.2023.1080p.GLBO.WEB-DL.AAC2.0.x264-DASH.mkv<br>
Format : Matroska<br>
Format version : Version 4<br>
File size : 2.91 GiB<br>
Duration : 1 h 27 min<br>
Overall bit rate : 4 791 kb/s<br>
Frame rate : 29.970 FPS<br>
Encoded date : 2024-03-22 22:26:27 UTC<br>
Writing application : mkvmerge v82.0 ('I'm The President') 64-bit<br>
Writing library : libebml v1.4.5 + libmatroska v1.7.1<br>
<br>
Video<br>
ID : 1<br>
Format : AVC<br>
Format/Info : Advanced Video Codec<br>
Format profile : High@L4<br>
Format settings : CABAC / 2 Ref Frames<br>
Format settings, CABAC : Yes<br>
Format settings, Reference frames : 2 frames<br>
Codec ID : V_MPEG4/ISO/AVC<br>
Duration : 1 h 27 min<br>
Bit rate : 4 660 kb/s<br>
Width : 1 920 pixels<br>
Height : 1 080 pixels<br>
Display aspect ratio : 16:9<br>
Frame rate mode : Constant<br>
Frame rate : 29.970 (30000/1001) FPS<br>
Color space : YUV<br>
Chroma subsampling : 4:2:0<br>
Bit depth : 8 bits<br>
Scan type : Progressive<br>
Bits/(Pixel*Frame) : 0.075<br>
Stream size : 2.83 GiB (97%)<br>
Writing library : x264 core 148<br>
Encoding settings : cabac=1 / ref=2 / deblock=1:0:0 / analyse=0x3:0x113 / me=hex / subme=4 / psy=1 / psy_rd=1.00:0.00 / mixed_ref=0 / me_range=16 / chroma_me=1 / trellis=1 / 8x8dct=1 / cqm=0 / deadzone=21,11 / fast_pskip=1 / chroma_qp_offset=0 / threads=24 / lookahead_threads=6 / sliced_threads=0 / nr=0 / decimate=1 / interlaced=0 / bluray_compat=0 / constrained_intra=0 / bframes=1 / b_pyramid=0 / b_adapt=1 / b_bias=0 / direct=1 / weightb=1 / open_gop=0 / weightp=1 / keyint=30 / keyint_min=16 / scenecut=0 / intra_refresh=0 / rc=2pass / mbtree=0 / bitrate=4660 / ratetol=1.0 / qcomp=0.60 / qpmin=0 / qpmax=69 / qpstep=4 / cplxblur=20.0 / qblur=0.5 / ip_ratio=1.40 / pb_ratio=1.30 / aq=1:1.00<br>
Default : Yes<br>
Forced : No<br>
<br>
Audio<br>
ID : 2<br>
Format : AAC LC<br>
Format/Info : Advanced Audio Codec Low Complexity<br>
Codec ID : A_AAC-2<br>
Duration : 1 h 27 min<br>
Bit rate : 129 kb/s<br>
Channel(s) : 2 channels<br>
Channel layout : L R<br>
Sampling rate : 44.1 kHz<br>
Frame rate : 43.066 FPS (1024 SPF)<br>
Compression mode : Lossy<br>
Stream size : 80.2 MiB (3%)<br>
Default : Yes<br>
Forced : No</div>
</div><br>
<img src="https://i.imgur.com/w3olAwQ.jpeg" class="bbCodeImage LbImage" alt="[​IMG]" data-url="https://i.imgur.com/w3olAwQ.jpeg" style=""> <br>
<b><span style="font-size: 22px"><br>
Em comemoração aos 60 anos da Rainha dos Baixinhos, o Multishow embarca no "Navio da Xuxa" para um show diretamente do alto mar com os maiores sucessos da apresentadora.<br>
<br>
Screenshots:</span></b><br>
<img src="https://i.imgur.com/l7ju4wb.png" class="bbCodeImage LbImage" alt="[​IMG]" data-url="https://i.imgur.com/l7ju4wb.png" style=""> <br>
<b><span style="font-size: 22px"><br>
<b><span style="font-size: 26px">Download on MEGA:</span></b></span><br>
<span style="font-size: 18px">
<div class="bbCodeBlock bbCodeVfcHH HiddenContent">
<div class="attribution type">Hidden Content:</div>
<blockquote>You must reply before you can see the hidden data contained here.</blockquote>
</div></span></b>
<div class="messageTextEndMarker">&nbsp;</div>
</blockquote>
</article>]]></description>
                <author><![CDATA[dash]]></author>
                </item>

                
                <item>
                <title><![CDATA[【Cinema Center】MOVIE - Xuxa E Os Duendes (2001) 1080p GLBO (GLOBOPLAY) WEB-DL AAC2.0 (Brazilian Portuguese) x264-DASH]]></title>
                <link><![CDATA[https://sharemania.us/threads/xuxa-e-os-duendes-2001-1080p-glbo-globoplay-web-dl-aac2-0-brazilian-portuguese-x264-dash.240783/]]></link>
                <description><![CDATA[<article>
<blockquote class="messageText SelectQuoteContainer ugc baseHtml">
<span style="font-size: 22px"><b>Xuxa.e.os.Duendes.2001.1080p.GLBO.WEB-DL.AAC2.0.x264-DASH.mkv (Brazilian Portuguese)</b></span><br>
<span style="font-size: 18px"><br>
Title: <b>Xuxa E Os Duendes</b><br>
<br>
Release:<b> 2001</b><br>
<br>
Language: <b><b>Portuguese (Brazil)</b></b><br>
<br>
Source:</span><b><b> <span style="font-size: 18px">GLOBOPLAY (BRAZIL)</span></b></b><br>
<br>
<div class="ToggleTriggerAnchor bbCodeSpoilerContainer">
<button type="button" class="button bbCodeSpoilerButton ToggleTrigger Tooltip JsOnly" data-target="> .SpoilerTarget"><span>Spoiler: <span class="SpoilerTitle">MediaInfo</span></span></button>
<div class="SpoilerTarget bbCodeSpoilerText">General<br>
Unique ID : 265493814347648450612326775926827400847 (0xC7BC3FAB7847A729AEC630FE60023E8F)<br>
Complete name : Xuxa.e.os.Duendes.2001.1080p.GLBO.WEB-DL.AAC2.0.x264-DASH\Xuxa.e.os.Duendes.2001.1080p.GLBO.WEB-DL.AAC2.0.x264-DASH.mkv<br>
Format : Matroska<br>
Format version : Version 4<br>
File size : 2.91 GiB<br>
Duration : 1 h 26 min<br>
Overall bit rate : 4 789 kb/s<br>
Frame rate : 29.970 FPS<br>
Encoded date : 2024-03-22 20:59:09 UTC<br>
Writing application : mkvmerge v82.0 ('I'm The President') 64-bit<br>
Writing library : libebml v1.4.5 + libmatroska v1.7.1<br>
<br>
Video<br>
ID : 1<br>
Format : AVC<br>
Format/Info : Advanced Video Codec<br>
Format profile : High@L4<br>
Format settings : CABAC / 2 Ref Frames<br>
Format settings, CABAC : Yes<br>
Format settings, Reference frames : 2 frames<br>
Codec ID : V_MPEG4/ISO/AVC<br>
Duration : 1 h 26 min<br>
Bit rate : 4 660 kb/s<br>
Width : 1 920 pixels<br>
Height : 1 080 pixels<br>
Display aspect ratio : 16:9<br>
Frame rate mode : Constant<br>
Frame rate : 29.970 (29970/1000) FPS<br>
Color space : YUV<br>
Chroma subsampling : 4:2:0<br>
Bit depth : 8 bits<br>
Scan type : Progressive<br>
Bits/(Pixel*Frame) : 0.075<br>
Stream size : 2.83 GiB (97%)<br>
Title : Portuguese<br>
Writing library : x264 core 148<br>
Encoding settings : cabac=1 / ref=2 / deblock=1:0:0 / analyse=0x3:0x113 / me=hex / subme=4 / psy=1 / psy_rd=1.00:0.00 / mixed_ref=0 / me_range=16 / chroma_me=1 / trellis=1 / 8x8dct=1 / cqm=0 / deadzone=21,11 / fast_pskip=1 / chroma_qp_offset=0 / threads=24 / lookahead_threads=6 / sliced_threads=0 / nr=0 / decimate=1 / interlaced=0 / bluray_compat=0 / constrained_intra=0 / bframes=1 / b_pyramid=0 / b_adapt=1 / b_bias=0 / direct=1 / weightb=1 / open_gop=0 / weightp=1 / keyint=30 / keyint_min=16 / scenecut=0 / intra_refresh=0 / rc=2pass / mbtree=0 / bitrate=4660 / ratetol=1.0 / qcomp=0.60 / qpmin=0 / qpmax=69 / qpstep=4 / cplxblur=20.0 / qblur=0.5 / ip_ratio=1.40 / pb_ratio=1.30 / aq=1:1.00<br>
Language : Portuguese<br>
Default : Yes<br>
Forced : No<br>
<br>
Audio<br>
ID : 2<br>
Format : AAC LC<br>
Format/Info : Advanced Audio Codec Low Complexity<br>
Codec ID : A_AAC-2<br>
Duration : 1 h 26 min<br>
Bit rate : 128 kb/s<br>
Channel(s) : 2 channels<br>
Channel layout : L R<br>
Sampling rate : 44.1 kHz<br>
Frame rate : 43.066 FPS (1024 SPF)<br>
Compression mode : Lossy<br>
Stream size : 79.6 MiB (3%)<br>
Title : Portuguese<br>
Language : Portuguese<br>
Default : Yes<br>
Forced : No<br>
<br>
Text #1<br>
ID : 3<br>
Format : UTF-8<br>
Codec ID : S_TEXT/UTF8<br>
Codec ID/Info : UTF-8 Plain Text<br>
Duration : 1 h 26 min<br>
Bit rate : 72 b/s<br>
Frame rate : 0.276 FPS<br>
Count of elements : 1433<br>
Stream size : 45.8 KiB (0%)<br>
Title : Portuguese<br>
Language : Portuguese<br>
Default : No<br>
Forced : No<br>
<br>
Text #2<br>
ID : 4<br>
Format : UTF-8<br>
Codec ID : S_TEXT/UTF8<br>
Codec ID/Info : UTF-8 Plain Text<br>
Duration : 1 h 26 min<br>
Bit rate : 72 b/s<br>
Frame rate : 0.276 FPS<br>
Count of elements : 1434<br>
Stream size : 45.8 KiB (0%)<br>
Title : Portuguese<br>
Language : Portuguese<br>
Default : No<br>
Forced : No</div>
</div><br>
<img src="https://i.imgur.com/70N2b5y.jpeg" class="bbCodeImage LbImage" alt="[​IMG]" data-url="https://i.imgur.com/70N2b5y.jpeg" style=""> <br>
<br>
<b><span style="font-size: 22px">Uma botânica amiga do meio ambiente descobre que faz parte de um mundo mágico oculto habitado por fadas e elfos.<br>
<br>
Screenshots:</span></b><br>
<img src="https://i.imgur.com/Ket7RPc.png" class="bbCodeImage LbImage" alt="[​IMG]" data-url="https://i.imgur.com/Ket7RPc.png" style=""> <br>
<b><span style="font-size: 22px"><br>
<b><span style="font-size: 26px">Download on MEGA:</span></b></span><br>
<span style="font-size: 18px">
<div class="bbCodeBlock bbCodeVfcHH HiddenContent">
<div class="attribution type">Hidden Content:</div>
<blockquote>You must reply before you can see the hidden data contained here.</blockquote>
</div></span></b>
<div class="messageTextEndMarker">&nbsp;</div>
</blockquote>
</article>]]></description>
                <author><![CDATA[dash]]></author>
                </item>

                
                <item>
                <title><![CDATA[【Cinema Center】MOVIE - Xuxa E Os Duendes 2: No Caminho Das Fadas (2002) 1080p GLBO (GLOBOPLAY) WEB-DL AAC2.0 (Brazilian Portuguese) x264-DASH]]></title>
                <link><![CDATA[https://sharemania.us/threads/xuxa-e-os-duendes-2-no-caminho-das-fadas-2002-1080p-glbo-globoplay-web-dl-aac2-0-brazilian-portuguese-x264-dash.240784/]]></link>
                <description><![CDATA[<article>
<blockquote class="messageText SelectQuoteContainer ugc baseHtml">
<span style="font-size: 22px"><b>Xuxa.E.Os.Duendes.2.No.Caminho.Das.Fadas.2002.1080p.GLBO.WEB-DL.AAC2.0.x264-DASH.mkv (Brazilian Portuguese)</b></span><br>
<span style="font-size: 18px"><br>
Title: </span><b><span style="font-size: 18px">Xuxa E Os Duendes 2: No Caminho Das Fadas</span></b><br>
<span style="font-size: 18px"><br>
Release:<b> 2002</b><br>
<br>
Language: <b><b>Portuguese (Brazil)</b></b><br>
<br>
Source:</span><b><b> <span style="font-size: 18px">GLOBOPLAY (BRAZIL)</span></b></b><br>
<br>
<div class="ToggleTriggerAnchor bbCodeSpoilerContainer">
<button type="button" class="button bbCodeSpoilerButton ToggleTrigger Tooltip JsOnly" data-target="> .SpoilerTarget"><span>Spoiler: <span class="SpoilerTitle">MediaInfo</span></span></button>
<div class="SpoilerTarget bbCodeSpoilerText">General<br>
Unique ID : 109073151511970891242727041813443492187 (0x520EB99097B9474CD185F8FC588FB95B)<br>
Complete name : Xuxa.E.Os.Duendes.2.No.Caminho.Das.Fadas.2002.1080p.GLBO.WEB-DL.AAC2.0.x264-DASH\Xuxa.E.Os.Duendes.2.No.Caminho.Das.Fadas.2002.1080p.GLBO.WEB-DL.AAC2.0.x264-DASH.mkv<br>
Format : Matroska<br>
Format version : Version 4<br>
File size : 2.94 GiB<br>
Duration : 1 h 27 min<br>
Overall bit rate : 4 786 kb/s<br>
Frame rate : 29.970 FPS<br>
Encoded date : 2024-03-22 21:31:01 UTC<br>
Writing application : mkvmerge v82.0 ('I'm The President') 64-bit<br>
Writing library : libebml v1.4.5 + libmatroska v1.7.1<br>
<br>
Video<br>
ID : 1<br>
Format : AVC<br>
Format/Info : Advanced Video Codec<br>
Format profile : High@L4<br>
Format settings : CABAC / 2 Ref Frames<br>
Format settings, CABAC : Yes<br>
Format settings, Reference frames : 2 frames<br>
Codec ID : V_MPEG4/ISO/AVC<br>
Duration : 1 h 27 min<br>
Bit rate : 4 660 kb/s<br>
Width : 1 920 pixels<br>
Height : 1 080 pixels<br>
Display aspect ratio : 16:9<br>
Frame rate mode : Constant<br>
Frame rate : 29.970 (30000/1001) FPS<br>
Color space : YUV<br>
Chroma subsampling : 4:2:0<br>
Bit depth : 8 bits<br>
Scan type : Progressive<br>
Bits/(Pixel*Frame) : 0.075<br>
Stream size : 2.86 GiB (97%)<br>
Title : Portuguese<br>
Writing library : x264 core 148<br>
Encoding settings : cabac=1 / ref=2 / deblock=1:0:0 / analyse=0x3:0x113 / me=hex / subme=4 / psy=1 / psy_rd=1.00:0.00 / mixed_ref=0 / me_range=16 / chroma_me=1 / trellis=1 / 8x8dct=1 / cqm=0 / deadzone=21,11 / fast_pskip=1 / chroma_qp_offset=0 / threads=24 / lookahead_threads=6 / sliced_threads=0 / nr=0 / decimate=1 / interlaced=0 / bluray_compat=0 / constrained_intra=0 / bframes=1 / b_pyramid=0 / b_adapt=1 / b_bias=0 / direct=1 / weightb=1 / open_gop=0 / weightp=1 / keyint=30 / keyint_min=16 / scenecut=0 / intra_refresh=0 / rc=2pass / mbtree=0 / bitrate=4660 / ratetol=1.0 / qcomp=0.60 / qpmin=0 / qpmax=69 / qpstep=4 / cplxblur=20.0 / qblur=0.5 / ip_ratio=1.40 / pb_ratio=1.30 / aq=1:1.00<br>
Language : Portuguese<br>
Default : Yes<br>
Forced : No<br>
<br>
Audio<br>
ID : 2<br>
Format : AAC LC<br>
Format/Info : Advanced Audio Codec Low Complexity<br>
Codec ID : A_AAC-2<br>
Duration : 1 h 27 min<br>
Bit rate : 128 kb/s<br>
Channel(s) : 2 channels<br>
Channel layout : L R<br>
Sampling rate : 44.1 kHz<br>
Frame rate : 43.066 FPS (1024 SPF)<br>
Compression mode : Lossy<br>
Stream size : 80.4 MiB (3%)<br>
Title : Portuguese<br>
Language : Portuguese<br>
Default : Yes<br>
Forced : No<br>
<br>
Text #1<br>
ID : 3<br>
Format : UTF-8<br>
Codec ID : S_TEXT/UTF8<br>
Codec ID/Info : UTF-8 Plain Text<br>
Duration : 1 h 27 min<br>
Bit rate : 74 b/s<br>
Frame rate : 0.289 FPS<br>
Count of elements : 1523<br>
Stream size : 47.6 KiB (0%)<br>
Title : Portuguese<br>
Language : Portuguese<br>
Default : No<br>
Forced : No<br>
<br>
Text #2<br>
ID : 4<br>
Format : UTF-8<br>
Codec ID : S_TEXT/UTF8<br>
Codec ID/Info : UTF-8 Plain Text<br>
Duration : 1 h 27 min<br>
Bit rate : 74 b/s<br>
Frame rate : 0.290 FPS<br>
Count of elements : 1528<br>
Stream size : 47.6 KiB (0%)<br>
Title : Portuguese<br>
Language : Portuguese<br>
Default : No<br>
Forced : No</div>
</div><br>
<img src="https://i.imgur.com/ORQvfjX.jpeg" class="bbCodeImage LbImage" alt="[​IMG]" data-url="https://i.imgur.com/ORQvfjX.jpeg" style=""> <br>
<b><span style="font-size: 22px"><br>
Uma botânica amiga do meio ambiente descobre que faz parte de um mundo mágico oculto habitado por fadas e elfos.<br>
<br>
Screenshots:</span></b><br>
<img src="https://i.imgur.com/KRxjwOT.png" class="bbCodeImage LbImage" alt="[​IMG]" data-url="https://i.imgur.com/KRxjwOT.png" style=""> <br>
<b><span style="font-size: 22px"><br>
<b><span style="font-size: 26px">Download on MEGA:</span></b></span><br>
<span style="font-size: 18px">
<div class="bbCodeBlock bbCodeVfcHH HiddenContent">
<div class="attribution type">Hidden Content:</div>
<blockquote>You must reply before you can see the hidden data contained here.</blockquote>
</div></span></b>
<div class="messageTextEndMarker">&nbsp;</div>
</blockquote>
</article>]]></description>
                <author><![CDATA[dash]]></author>
                </item>

                
                <item>
                <title><![CDATA[【Requests】[REQ AUD] - The Sophie Ellis-Bextor Digital Archive]]></title>
                <link><![CDATA[https://sharemania.us/threads/the-sophie-ellis-bextor-digital-archive.240786/]]></link>
                <description><![CDATA[<article>
<blockquote class="messageText SelectQuoteContainer ugc baseHtml">
Hello,<br>
so I’m trying to build not a but THE Sophie Ellis-Bextor Digital Archive: the definitive collection of her material (b-sides, singles etc.) that is not on Spotify / Apple Music and in lossless quality. Would you give me a hand with this mission? ;-)<br>
<br>
I’ll start.<br>
<br>
Sophia Loren (2022 Reissue)<br>
<a href="https://mega.nz/file/oIBinZRI#gRWWPyr53DzcizI-Px-y_LQjupVvrX_HqlM1bmzyCWg" target="_blank" class="externalLink" rel="nofollow">https://mega.nz/file/oIBinZRI#gRWWPyr53DzcizI-Px-y_LQjupVvrX_HqlM1bmzyCWg</a><br>
<br>
Dear Jimmy (2022 Reissue)<br>
<a href="https://mega.nz/file/FRgxXQbY#Sv1xgrfBAeOsXieYqvINXc0rEruOmqsVVDaLtgSO1mY" target="_blank" class="externalLink" rel="nofollow">https://mega.nz/file/FRgxXQbY#Sv1xgrfBAeOsXieYqvINXc0rEruOmqsVVDaLtgSO1mY</a><br>
<br>
EDIT: I’m going to add any new material to my personal collection, providing a link for the community which will stay forever, once and for all.
<div class="messageTextEndMarker">&nbsp;</div>
</blockquote>
</article>]]></description>
                <author><![CDATA[kleinbleu]]></author>
                </item>

                </channel></rss>